<mxfile host="app.diagrams.net" modified="2021-10-23T07:28:31.863Z" agent="5.0 (Windows NT 10.0; Win64; x64) AppleWebKit/537.36 (KHTML, like Gecko) Chrome/95.0.4638.54 Safari/537.36" etag="DsLXR2h56CVwQLnMZboS" version="15.5.8" type="github">
  <diagram id="F-MuWPrDm6N14RuOj-hq" name="Page-1">
    <mxGraphModel dx="1038" dy="1748" grid="1" gridSize="10" guides="1" tooltips="1" connect="1" arrows="1" fold="1" page="1" pageScale="1" pageWidth="827" pageHeight="1169" math="0" shadow="0">
      <root>
        <mxCell id="0" />
        <mxCell id="1" parent="0" />
        <mxCell id="Izu2raThcNqir0y4J2Mj-1" value="" style="verticalLabelPosition=bottom;shadow=0;dashed=0;align=center;html=1;verticalAlign=top;shape=mxgraph.electrical.opto_electronics.7_segment_display;pointerEvents=1;" vertex="1" parent="1">
          <mxGeometry x="610" y="-750" width="120" height="160" as="geometry" />
        </mxCell>
        <mxCell id="Izu2raThcNqir0y4J2Mj-2" value="Mux" style="shadow=0;dashed=0;align=center;html=1;strokeWidth=1;shape=mxgraph.electrical.abstract.mux2;" vertex="1" parent="1">
          <mxGeometry x="70" y="-730" width="80" height="120" as="geometry" />
        </mxCell>
        <mxCell id="Izu2raThcNqir0y4J2Mj-3" value="" style="shape=or;whiteSpace=wrap;html=1;" vertex="1" parent="1">
          <mxGeometry x="210" y="-710" width="60" height="80" as="geometry" />
        </mxCell>
        <mxCell id="Izu2raThcNqir0y4J2Mj-4" value="" style="shape=xor;whiteSpace=wrap;html=1;" vertex="1" parent="1">
          <mxGeometry x="310" y="-710" width="90" height="80" as="geometry" />
        </mxCell>
        <mxCell id="Izu2raThcNqir0y4J2Mj-5" value="" style="verticalLabelPosition=bottom;shadow=0;dashed=0;align=center;html=1;verticalAlign=top;shape=mxgraph.electrical.logic_gates.logic_gate;operation=or;negating=1;negSize=0.15;" vertex="1" parent="1">
          <mxGeometry x="440" y="-700" width="100" height="60" as="geometry" />
        </mxCell>
        <mxCell id="Izu2raThcNqir0y4J2Mj-6" value="" style="verticalLabelPosition=middle;verticalAlign=middle;html=1;shape=trapezoid;perimeter=trapezoidPerimeter;whiteSpace=wrap;size=0.23;arcSize=10;flipV=1;labelPosition=center;align=center;rotation=-90;" vertex="1" parent="1">
          <mxGeometry x="60" y="-530" width="100" height="60" as="geometry" />
        </mxCell>
      </root>
    </mxGraphModel>
  </diagram>
</mxfile>
